# xmcd
#
# Track frame offsets: 
#        150
#        22849
#        45385
#        68378
#        90118
#        110586
#        127332
#        158062
#        182020
#        210420
#        233510
#        260455
#
# Disc length: 3626 seconds
#
# Revision: 1
# Processed by: cddbd v1.5.2PL0 Copyright (c) Steve Scherf et al.
# Submitted via: ExactAudioCopy v1.3
#
DISCID=890e280c
DTITLE=Tom Morrell and The Timewarp Tophands - How The West Was Swung, V
DTITLE=ol.14 (Live At Scotty's International Steel Guitar Convention)
DYEAR=2006
DGENRE=Western Swing
TTITLE0=Stompin' At The Savoy
TTITLE1=Just Can't Take It Anymore
TTITLE2=7 Come 11
TTITLE3=Corrina
TTITLE4=Misery
TTITLE5=Four Or Five Times
TTITLE6=Fly Me To The Moon
TTITLE7=Old Fashioned Love
TTITLE8=Opus #1
TTITLE9=Milk Cow Blues
TTITLE10=Maiden's Prayer
TTITLE11=Goodnight Little Sweetheart
EXTD=
EXTT0=
EXTT1=
EXTT2=
EXTT3=
EXTT4=
EXTT5=
EXTT6=
EXTT7=
EXTT8=
EXTT9=
EXTT10=
EXTT11=
PLAYORDER=
